<svg width="22" height="21" viewBox="0 0 22 21" fill="none" xmlns="http://www.w3.org/2000/svg">
<path fill-rule="evenodd" clip-rule="evenodd" d="M0.0140753 8.08406C-0.0590997 7.79136 0.162275 7.50781 0.46398 7.50781H21.536C21.8377 7.50781 22.0591 7.79136 21.986 8.08406L19.0593 19.7903C18.9561 20.2032 18.5851 20.4928 18.1595 20.4928H3.84044C3.41484 20.4928 3.04385 20.2032 2.94063 19.7903L0.0140753 8.08406ZM11.75 11.6253C11.75 11.2111 11.4142 10.8753 11 10.8753C10.5858 10.8753 10.25 11.2111 10.25 11.6253V16.3753C10.25 16.7895 10.5858 17.1253 11 17.1253C11.4142 17.1253 11.75 16.7895 11.75 16.3753V11.6253ZM16.0688 11.0638C16.458 11.2055 16.6588 11.6359 16.517 12.0251L14.8925 16.4886C14.7508 16.8779 14.3204 17.0786 13.9312 16.9369C13.542 16.7952 13.3413 16.3648 13.483 15.9756L15.1075 11.5121C15.2492 11.1228 15.6796 10.9221 16.0688 11.0638ZM6.89245 11.5121C6.7508 11.1228 6.3204 10.9221 5.9312 11.0638C5.54195 11.2055 5.34125 11.6359 5.48295 12.0251L7.1075 16.4886C7.2492 16.8779 7.6796 17.0786 8.0688 16.9369C8.45805 16.7952 8.65875 16.3648 8.51705 15.9756L6.89245 11.5121Z" fill="#3C3737"/>
<path d="M17.5 8.50003L12.5887 2.07758C11.7882 1.03078 10.2118 1.03078 9.4113 2.07758L4.5 8.50003" stroke="#3C3737" stroke-width="2" stroke-linecap="round" stroke-linejoin="round"/>
</svg>
